<svg width="24" height="24" viewBox="0 0 24 24" fill="none" xmlns="http://www.w3.org/2000/svg">
<path d="M12.3547 9.52192L12.3547 9.52194L12.3582 9.52544L16.6407 13.758C16.6835 13.8049 16.717 13.8595 16.7394 13.919C16.7626 13.9808 16.7734 14.0466 16.7711 14.1127C16.7687 14.1787 16.7534 14.2436 16.7258 14.3036C16.6983 14.3636 16.6591 14.4176 16.6105 14.4624L16.604 14.4685L16.5976 14.4748C16.5509 14.5212 16.4955 14.5578 16.4345 14.5827C16.3736 14.6076 16.3084 14.6202 16.2426 14.6198L16.2418 14.6198C16.1109 14.6193 15.9855 14.5674 15.8924 14.4754C15.8922 14.4752 15.892 14.475 15.8918 14.4748L12.3533 10.9363L11.9997 10.5827L11.6462 10.9363L8.1072 14.4752C8.10705 14.4754 8.10691 14.4755 8.10676 14.4757C8.01312 14.5685 7.88659 14.6206 7.7547 14.6206C7.62261 14.6206 7.49589 14.5683 7.4022 14.4752L7.40181 14.4748C7.35494 14.4283 7.31774 14.373 7.29236 14.3121C7.26698 14.2512 7.25391 14.1858 7.25391 14.1198C7.25391 14.0538 7.26698 13.9885 7.29236 13.9275C7.31774 13.8666 7.35494 13.8113 7.40181 13.7648L7.40181 13.7648L7.40326 13.7634L11.6433 9.52338L11.6433 9.52338L11.6447 9.52192C11.6912 9.47506 11.7465 9.43786 11.8074 9.41248C11.8683 9.38709 11.9337 9.37402 11.9997 9.37402C12.0657 9.37402 12.1311 9.38709 12.192 9.41248C12.2529 9.43786 12.3082 9.47506 12.3547 9.52192Z" fill="black" stroke="#424C5D"/>
</svg>
