<svg width="31" height="31" viewBox="0 0 31 31" fill="none" xmlns="http://www.w3.org/2000/svg">
<path d="M26.0409 5.95469C24.6696 4.58295 22.8515 3.74895 20.9172 3.60435C18.9829 3.45976 17.061 4.01417 15.5009 5.16678C13.8575 3.94439 11.8119 3.3901 9.77617 3.61553C7.74041 3.84096 5.86567 4.82937 4.52948 6.3817C3.1933 7.93403 2.49491 9.93499 2.57497 11.9816C2.65503 14.0283 3.50757 15.9686 4.96093 17.4118L14.5839 27.0347C14.7039 27.1558 14.8468 27.2519 15.0042 27.3174C15.1616 27.383 15.3304 27.4168 15.5009 27.4168C15.6715 27.4168 15.8403 27.383 15.9977 27.3174C16.1551 27.2519 16.2979 27.1558 16.418 27.0347L26.0409 17.4118C26.7935 16.6597 27.3906 15.7666 27.7979 14.7837C28.2052 13.8008 28.4149 12.7472 28.4149 11.6832C28.4149 10.6193 28.2052 9.56569 27.7979 8.58276C27.3906 7.59983 26.7935 6.7068 26.0409 5.95469ZM24.2197 15.5905L15.5009 24.2964L6.78219 15.5905C6.01387 14.819 5.49049 13.8378 5.27769 12.77C5.06489 11.7021 5.17216 10.5952 5.58604 9.58814C5.99992 8.58105 6.70197 7.71859 7.60413 7.10896C8.50629 6.49933 9.56839 6.16968 10.6572 6.16136C12.1117 6.16492 13.5054 6.74563 14.5322 7.77594C14.6523 7.89701 14.7951 7.9931 14.9525 8.05868C15.1099 8.12426 15.2788 8.15802 15.4493 8.15802C15.6198 8.15802 15.7886 8.12426 15.946 8.05868C16.1034 7.9931 16.2463 7.89701 16.3664 7.77594C17.4234 6.86 18.7889 6.37984 20.1865 6.43264C21.5842 6.48545 22.9095 7.06727 23.8944 8.06036C24.8793 9.05344 25.4501 10.3836 25.4913 11.7816C25.5325 13.1797 25.041 14.5412 24.1164 15.5905H24.2197Z" fill="#D13329"/>
</svg>
